<svg xmlns="http://www.w3.org/2000/svg" aria-hidden="true" style="position:absolute;width:0;height:0;overflow:hidden">
  <defs>

    <symbol id="icon-burger" viewBox="0 0 32 32">
      <path d="M4 7.555h24v2.667H4V7.555zm0 6.667h24v2.667H4v-2.667zm0 6.667h24v2.667H4v-2.667z"/>
    </symbol>

    <symbol id="icon-arrow" viewBox="0 0 27 32">
      <path d="M22.905 22.827V4.808l2.921.181L3.361 27.48 0 24.119 22.465 1.654l.233 2.921H4.602V-.001l22.827.052v22.775h-4.524z"/>
    </symbol>
    
    <symbol id="icon-logo" viewBox="0 0 15 32">
      <path d="m10.212 9.868 4.303 5.069-1.749 1.48-2.554-3.017v7.171h1.143V32H9.069V20.571H7.926V6.857h2.286v3.011zM5.68 20.571 3.583 32H1.257l2.097-11.429h2.325zm-3.543-4.165L0 15.594l3.303-8.737h2.446l-3.612 9.549zM7.926 4.549H5.64V0h2.286v4.549z"/>
    </symbol>

    <symbol id="icon-build" viewBox="0 0 32 32">
      <path d="M15.334 1.333 2.667 8v2.667H28V8zm6 12v9.333h4v-9.333zm-18.667 16H28v-4H2.667zm10.667-16v9.333h4v-9.333zm-8 0v9.333h4v-9.333h-4z"/>
    </symbol>

    <symbol id="icon-cable" viewBox="0 0 32 32">
      <path d="M9.404 4.666a4.691 4.691 0 0 0 0 6.627L20.724 22.6c.773.787.773 2.067 0 2.827a2.003 2.003 0 0 1-2.84 0l-5.653-5.653 1.413-1.413-4.707-4.72-.48.48-1.88-1.893c-.52-.52-1.36-.52-1.907 0l-1.867 1.893c-.52.547-.52 1.36 0 1.88l1.867 1.88-.453.48 4.72 4.707 1.413-1.413 5.653 5.68a4.708 4.708 0 0 0 6.6 0c1.827-1.84 1.827-4.8 0-6.613l-11.32-11.32c-.773-.787-.773-2.067 0-2.827a2.003 2.003 0 0 1 2.84 0l5.653 5.653-1.413 1.413 4.707 4.72.48-.48 1.88 1.893c.52.52 1.373.52 1.907 0l1.867-1.893c.52-.547.52-1.36 0-1.88l-1.867-1.88.453-.48-4.72-4.707-1.413 1.413-5.653-5.68a4.708 4.708 0 0 0-6.6 0zM3.751 15.053l1.88-1.88 1.893 1.88-1.893 1.893zm20.733 1.893 1.893-1.893 1.88 1.893-1.88 1.88-1.893-1.88z"/>
    </symbol>
    
    <symbol id="icon-chart" viewBox="0 0 32 32">
      <path d="m4 18.667.667.093 6.093-6.093a2.602 2.602 0 0 1 .693-2.547 2.633 2.633 0 0 1 3.76 0 2.6 2.6 0 0 1 .693 2.547l3.427 3.427.667-.093c.24 0 .467 0 .667.093l4.76-4.76c-.093-.2-.093-.427-.093-.667a2.668 2.668 0 1 1 2.667 2.667c-.24 0-.467 0-.667-.093l-4.76 4.76c.093.2.093.427.093.667a2.668 2.668 0 0 1-5.334 0l.093-.667-3.427-3.427a3.22 3.22 0 0 1-1.333 0l-6.093 6.093.093.667a2.67 2.67 0 0 1-2.667 2.667 2.666 2.666 0 1 1 0-5.334z"/>
    </symbol>
    
    <symbol id="icon-check" viewBox="0 0 32 32">
      <path d="m28 9.333-16 16L4.667 18l1.88-1.88L12 21.56 26.12 7.453 28 9.333z"/>
    </symbol>
    
    <symbol id="icon-close" viewBox="0 0 32 32">
      <path d="m17.947 16 7.387 7.387v1.947h-1.947L16 17.947l-7.387 7.387H6.666v-1.947L14.053 16 6.666 8.613V6.666h1.947L16 14.053l7.387-7.387h1.947v1.947L17.947 16z"/>
    </symbol>
    
    <symbol id="icon-earth" viewBox="0 0 32 32">
      <path d="M23.867 23.187a2.674 2.674 0 0 0-2.533-1.853h-1.333v-4A1.334 1.334 0 0 0 18.667 16h-8v-2.667h2.667a1.335 1.335 0 0 0 1.334-1.334V9.332h2.667a2.668 2.668 0 0 0 2.667-2.667v-.547a10.645 10.645 0 0 1 3.867 17.067zm-9.2 3.386C9.4 25.92 5.334 21.44 5.334 16c0-.827.107-1.627.28-2.387L12.001 20v1.333A2.668 2.668 0 0 0 14.668 24zM16 2.667a13.33 13.33 0 0 0-9.428 3.905A13.334 13.334 0 0 0 16 29.333a13.334 13.334 0 0 0 9.428-22.761A13.33 13.33 0 0 0 16 2.667z"/>
    </symbol>
    
    <symbol id="icon-human" viewBox="0 0 32 32">
      <path d="M12 6.667a5.334 5.334 0 1 1 0 10.668 5.334 5.334 0 0 1 0-10.668zM12 20c3.56 0 10.667 1.787 10.667 5.333V28H1.334v-2.667C1.334 21.786 8.441 20 12.001 20zM22.346 7.147c2.693 2.933 2.693 7 0 9.693l-2.24-2.253a4.424 4.424 0 0 0 0-5.187l2.24-2.253zm4.414-4.48c5.24 5.4 5.2 13.48 0 18.667l-2.173-2.173c3.693-4.24 3.693-10.293 0-14.32l2.173-2.173z"/>
    </symbol>
    
    <symbol id="icon-paint" viewBox="0 0 32 32">
      <path d="M23.333 16a2 2 0 1 1 .001-4.001A2 2 0 0 1 23.333 16zm-4-5.333a2 2 0 1 1 .001-4.001 2 2 0 0 1-.001 4.001zm-6.666 0a2 2 0 1 1 .001-4.001 2 2 0 0 1-.001 4.001zm-4 5.333a2 2 0 1 1 .001-4.001A2 2 0 0 1 8.667 16zM16 4A12.003 12.003 0 0 0 4 16a12.003 12.003 0 0 0 12 12 2 2 0 0 0 2-2c0-.52-.2-.987-.52-1.333a2.064 2.064 0 0 1-.507-1.333 2 2 0 0 1 2-2h2.36A6.67 6.67 0 0 0 28 14.667C28 8.774 22.627 4 16 4z"/>
    </symbol>
  </defs>
</svg>
